# xmcd
#
# Track frame offsets:
#  150
#  22599
#  40068
#  59407
#  78197
#  99004
#  123087
#  147621
#  168147
#  189622
#  213901
#  235816
#
# Disc length: 3442 seconds
#
# Revision: 0
# Processed by: cddbd v1.5.1PL0 Copyright (c) Steve Scherf et al.
# Submitted via: Collectorz.com Music Collector 6.9
#
DISCID=8c0d700c
DTITLE=古璇 - 水流紅
DYEAR=1900
DGENRE=
TTITLE0=情已逝
TTITLE1=水紅流
TTITLE2=人間煙火
TTITLE3=丁香花
TTITLE4=每當變幻時
TTITLE5=蔓珠莎萢
TTITLE6=情緒
TTITLE7=月亮可以代表我的心
TTITLE8=夜雨
TTITLE9=忘眒心中情
TTITLE10=我會守候您
TTITLE11=花誾
EXTD=
EXTT0=
EXTT1=
EXTT2=
EXTT3=
EXTT4=
EXTT5=
EXTT6=
EXTT7=
EXTT8=
EXTT9=
EXTT10=
EXTT11=
PLAYORDER=
